<?xml version="1.0" encoding="UTF-8"?><svg xmlns="http://www.w3.org/2000/svg" xmlns:xlink="http://www.w3.org/1999/xlink" xmlns:serif="http://www.serif.com/" width="100%" height="100%" viewBox="0 0 1080 1080" version="1.2" xml:space="preserve" baseProfile="tiny-ps" fill-rule="evenodd" stroke-linejoin="round" stroke-miterlimit="2"><title>Adam Gethin</title><g transform="matrix(1,0,0,0.865385,0,0)"><rect x="0" y="0" width="1080" height="1248" fill="rgb(83,0,236)"></rect></g><g transform="matrix(2.39031,0,0,2.39031,227.683,124.089)"><path d="M54,67L36,47C84,0 136,-12 188,12C241,36 264,90 260,171L233,169C236,99 218,56 177,37C135,18 95,28 54,67ZM159,109L164,136C109,145 71,161 50,181C30,201 24,225 31,255C42,298 72,319 112,320C146,321 180,305 190,285C200,265 198,249 188,240C176,230 152,228 119,238L110,212C152,199 186,202 206,219C227,237 229,267 215,297C200,328 155,349 111,348C60,346 19,317 5,262C-5,222 3,188 31,162C57,137 100,119 159,109Z" fill="rgb(255,223,219)" fill-rule="nonzero"></path></g></svg>