<svg width="186" height="14" xmlns="http://www.w3.org/2000/svg"><path d="M4.145 3.022c1.797 0 3.058 1.3 3.058 3.132v5.152H5.674V6.421c0-1.206-.772-2.052-1.876-2.052-1.229 0-2.253.861-2.253 1.91v5.027H0V.36h1.545v4.056c.488-.814 1.481-1.394 2.6-1.394zm9.031 7.094c.852 0 1.845-.376 2.333-.877l.977 1.003c-.725.767-2.143 1.252-3.294 1.252-2.27 0-4.192-1.77-4.192-4.26 0-2.426 1.812-4.212 4.066-4.212 2.49 0 3.925 1.88 3.925 4.777h-6.415c.205 1.346 1.198 2.317 2.6 2.317zM13.13 4.4c-1.26 0-2.285.846-2.537 2.162h4.886c-.174-1.253-.946-2.162-2.349-2.162zm5.674 6.906V.36h1.545v10.946h-1.545zm3.815 0V.36h1.544v10.946h-1.544zm7.675.188c-2.332 0-4.303-1.941-4.303-4.243 0-2.302 1.97-4.229 4.303-4.229 2.317 0 4.272 1.927 4.272 4.229s-1.955 4.243-4.272 4.243zm0-1.346c1.466 0 2.711-1.316 2.711-2.897 0-1.566-1.245-2.882-2.71-2.882-1.498 0-2.743 1.316-2.743 2.882 0 1.581 1.245 2.897 2.742 2.897zm36.173-7.126c2.19 0 3.404 1.378 3.404 3.383v4.901h-1.529v-1.111c-.599.845-1.718 1.3-2.71 1.3-1.734 0-3.011-1.003-3.011-2.584 0-1.613 1.466-2.694 3.262-2.694.804 0 1.671.172 2.46.438v-.25c0-1.018-.474-2.099-2.097-2.099-.804 0-1.592.314-2.301.674l-.568-1.143c1.167-.58 2.191-.815 3.09-.815zm-.536 7.25c1.008 0 2.143-.5 2.411-1.502V7.689a7.615 7.615 0 00-2.222-.313c-1.088 0-2.002.61-2.002 1.488 0 .876.788 1.409 1.813 1.409zM78.397.36h1.545v10.946h-1.545V9.897c-.63 1.002-1.64 1.597-2.9 1.597-2.144 0-3.751-1.754-3.751-4.243 0-2.475 1.607-4.229 3.75-4.229 1.262 0 2.27.595 2.901 1.582V.36zm-2.522 9.788c1.466 0 2.522-1.206 2.522-2.897 0-1.692-1.056-2.882-2.522-2.882-1.497 0-2.553 1.19-2.553 2.882 0 1.69 1.056 2.897 2.553 2.897zm9.835-7.126c2.191 0 3.405 1.378 3.405 3.383v4.901h-1.53v-1.111c-.598.845-1.717 1.3-2.71 1.3-1.734 0-3.01-1.003-3.01-2.584 0-1.613 1.465-2.694 3.262-2.694.804 0 1.67.172 2.459.438v-.25c0-1.018-.473-2.099-2.096-2.099-.804 0-1.592.314-2.302.674l-.567-1.143c1.166-.58 2.19-.815 3.09-.815zm-.536 7.25c1.01 0 2.144-.5 2.412-1.502V7.689a7.615 7.615 0 00-2.223-.313c-1.087 0-2.001.61-2.001 1.488 0 .876.788 1.409 1.812 1.409zm15.305-7.25c1.702 0 2.931 1.3 2.931 3.132v5.152h-1.529V6.39c0-1.19-.709-2.02-1.733-2.02-1.167 0-1.986.767-1.986 1.88v5.057h-1.53V6.39c0-1.19-.708-2.02-1.733-2.02-1.166 0-1.986.767-1.986 1.88v5.057h-1.56V3.21h1.56v1.128c.41-.799 1.261-1.316 2.301-1.316 1.182 0 2.144.627 2.617 1.629.378-1.002 1.418-1.629 2.648-1.629zm11.364.188h1.56v7.235c0 2.083-1.718 3.555-4.13 3.555-1.37 0-2.632-.454-3.404-1.08l.615-1.16c.599.564 1.576.893 2.553.893 1.75 0 2.806-.83 2.806-2.24V9.24c-.647.924-1.655 1.472-2.885 1.472-2.143 0-3.704-1.597-3.704-3.852s1.56-3.837 3.704-3.837c1.23 0 2.27.58 2.885 1.488v-1.3zm-2.49 6.155c1.45 0 2.49-1.034 2.49-2.506 0-1.456-1.04-2.49-2.49-2.49-1.45 0-2.475 1.034-2.475 2.49 0 1.472 1.024 2.506 2.474 2.506zm10.118.751c.851 0 1.844-.376 2.333-.877l.977 1.003c-.725.767-2.144 1.252-3.294 1.252-2.27 0-4.193-1.77-4.193-4.26 0-2.426 1.813-4.212 4.067-4.212 2.49 0 3.924 1.88 3.924 4.777h-6.415c.205 1.346 1.198 2.317 2.601 2.317zm-.047-5.716c-1.261 0-2.286.846-2.538 2.162h4.886c-.173-1.253-.945-2.162-2.348-2.162zm9.488 5.45l.568 1.065c-.442.36-1.04.58-1.624.58-1.26 0-2.143-.909-2.143-2.209v-4.76h-1.23V3.21h1.23V.987h1.528V3.21h1.923v1.316h-1.923v4.65c0 .564.379.972.836.972.347 0 .662-.126.835-.298zm6.305-6.828c1.796 0 3.057 1.3 3.057 3.132v5.152h-1.528V6.421c0-1.206-.773-2.052-1.876-2.052-1.23 0-2.254.861-2.254 1.91v5.027h-1.545V.36h1.545v4.056c.489-.814 1.482-1.394 2.6-1.394zm6.068-1.158a.945.945 0 01-.946-.94c0-.486.41-.924.946-.924a.95.95 0 01.93.924c0 .501-.426.94-.93.94zm-.788 9.442V3.21h1.56v8.096h-1.56zm7.96-8.284c1.796 0 3.057 1.3 3.057 3.132v5.152h-1.529V6.421c0-1.206-.772-2.052-1.876-2.052-1.134 0-2.112.736-2.238 1.691v5.246h-1.56V3.21h1.56v1.175c.489-.799 1.482-1.363 2.585-1.363zm6.272 8.472a1.056 1.056 0 01-1.056-1.064c0-.533.457-1.018 1.056-1.018a1.04 1.04 0 011.025 1.018c0 .579-.457 1.064-1.025 1.064zM43.397 1.364h10.007c3.04 0 5.504 2.448 5.504 5.468s-2.464 5.469-5.504 5.469H43.397c-3.04 0-5.504-2.449-5.504-5.469 0-3.02 2.465-5.468 5.504-5.468zm3.534 8.633h1.495l-2.522-6.148h-1.486l-2.522 6.148h1.486l.397-.966h2.756l.396.966zm-2.693-2.085l.919-2.246.918 2.246h-1.837zm6.52 2.085h1.334V5.04h1.927V3.85H48.83v1.19h1.928v4.957zm111.725-8.633h18.013c3.04 0 5.504 2.448 5.504 5.468s-2.464 5.469-5.504 5.469h-18.013c-3.04 0-5.504-2.449-5.504-5.469 0-3.02 2.464-5.468 5.504-5.468zm1.786 8.748c.937 0 1.802-.402 2.405-1.029l-.964-.859c-.36.412-.873.69-1.44.69-1.036 0-1.919-.914-1.919-1.987 0-1.065.883-1.978 1.918-1.978.568 0 1.081.277 1.441.69l.964-.86a3.322 3.322 0 00-2.405-1.03c-1.774 0-3.287 1.45-3.287 3.178 0 1.727 1.513 3.185 3.287 3.185zm6.269 0c1.792 0 3.287-1.458 3.287-3.185s-1.495-3.177-3.287-3.177c-1.774 0-3.288 1.45-3.288 3.177s1.514 3.185 3.288 3.185zm0-1.199c-1.036 0-1.919-.913-1.919-1.986 0-1.065.883-1.978 1.919-1.978 1.045 0 1.927.913 1.927 1.978 0 1.073-.882 1.986-1.927 1.986zm4.323 1.092h1.324v-3.83l1.918 3.472 1.91-3.472v3.83h1.333V3.857h-1.333l-1.91 3.472-1.918-3.472h-1.324v6.148z" fill="#FFF" fill-rule="evenodd"/></svg>